# xmcd
#
# Track frame offsets:
#	150
#	14430
#	26287
#	42766
#	59368
#	75569
#	89018
#	108562
#	121029
#	140010
#	158578
#	172524
#
# Disc length: 2547 seconds
#
# Revision: 0
# Processed by: cddbd v1.4PL0 Copyright (c) Steve Scherf et al.
# Submitted via: dBpowerAMP V4.0
#
DISCID=8809f10c
DTITLE=Ove Støylen - Dusty Boots
DYEAR=2003
DGENRE=Country
TTITLE0=Like a deck of cards
TTITLE1=Tonight`s the night
TTITLE2=Hopelessly
TTITLE3=Man of complications
TTITLE4=Dusty boots
TTITLE5=Take me as i am
TTITLE6=is it just me
TTITLE7=redneck fancy boy
TTITLE8=lost and found
TTITLE9=100% absolute woman
TTITLE10=Running around
TTITLE11=lost his way
EXTD=\n
EXTT0=
EXTT1=
EXTT2=
EXTT3=
EXTT4=
EXTT5=
EXTT6=
EXTT7=
EXTT8=
EXTT9=
EXTT10=
EXTT11=
PLAYORDER=
